<?xml version="1.0" encoding="UTF-8"?>
<!DOCTYPE svg PUBLIC "-//W3C//DTD SVG 1.1//EN" "http://www.w3.org/Graphics/SVG/1.1/DTD/svg11.dtd">
<svg width="100%" height="100%" viewBox="0 0 338 264" version="1.1" xmlns="http://www.w3.org/2000/svg" xmlns:xlink="http://www.w3.org/1999/xlink" xml:space="preserve" style="fill-rule:evenodd;clip-rule:evenodd;stroke-linejoin:round;stroke-miterlimit:1.41421;">
    <g transform="matrix(1,0,0,1,-2195,-944.128)">
        <g transform="matrix(1.93548,0,0,1.28578,-1052.42,-155.764)">
            <g>
                <g transform="matrix(0.69861,0,0,0.777737,144.384,121.143)">
                    <path d="M2444.89,972.25C2444.89,956.718 2435.58,944.128 2424.1,944.128C2377.04,944.128 2262.85,944.128 2215.8,944.128C2204.31,944.128 2195,956.718 2195,972.25C2195,972.251 2195,972.252 2195,972.253C2195,987.784 2204.31,1000.38 2215.8,1000.38C2262.85,1000.38 2377.04,1000.38 2424.1,1000.38C2435.58,1000.38 2444.89,987.784 2444.89,972.253C2444.89,972.252 2444.89,972.251 2444.89,972.25Z" style="fill:rgb(255,0,65);"/>
                </g>
                <g transform="matrix(0.69861,0,0,0.777737,144.384,201.891)">
                    <path d="M2444.89,972.25C2444.89,956.718 2435.58,944.128 2424.1,944.128C2377.04,944.128 2262.85,944.128 2215.8,944.128C2204.31,944.128 2195,956.718 2195,972.25C2195,972.251 2195,972.252 2195,972.253C2195,987.784 2204.31,1000.38 2215.8,1000.38C2262.85,1000.38 2377.04,1000.38 2424.1,1000.38C2435.58,1000.38 2444.89,987.784 2444.89,972.253C2444.89,972.252 2444.89,972.251 2444.89,972.25Z" style="fill:rgb(255,0,65);"/>
                </g>
                <g transform="matrix(0.69861,0,0,0.777737,144.384,282.638)">
                    <path d="M2444.89,972.25C2444.89,956.718 2435.58,944.128 2424.1,944.128C2377.04,944.128 2262.85,944.128 2215.8,944.128C2204.31,944.128 2195,956.718 2195,972.25C2195,972.251 2195,972.252 2195,972.253C2195,987.784 2204.31,1000.38 2215.8,1000.38C2262.85,1000.38 2377.04,1000.38 2424.1,1000.38C2435.58,1000.38 2444.89,987.784 2444.89,972.253C2444.89,972.252 2444.89,972.251 2444.89,972.25Z" style="fill:rgb(255,0,65);"/>
                </g>
            </g>
        </g>
    </g>
</svg>
